<svg width="320" height="86" viewBox="0 0 320 86" fill="none" xmlns="http://www.w3.org/2000/svg">
<path d="M-86.6803 26.4126C-86.6803 26.4126 -83.384 20.91 -84.4828 0C-84.4828 0 -72.3964 3.85184 -72.3964 31.9152C-72.3964 31.9152 -65.8038 23.6613 -59.2112 23.6613C-59.2112 23.6613 -63.0569 29.7142 -63.0569 36.8676C-63.0569 44.021 -58.1124 49.5236 -58.1124 49.5236C-58.1124 49.5236 -52.6186 53.9257 -52.6186 57.2273C-52.6186 57.2273 -47.1248 56.1268 -54.8162 39.0686C-54.8162 39.0686 -49.597 39.894 -41.631 47.8728C-41.631 47.8728 -42.7298 36.3173 -41.631 34.6665C-40.5322 33.0157 -36.6866 18.1587 -29.5446 15.4073C-29.5446 15.4073 -31.1927 38.5184 -26.7977 42.9205C-26.7977 42.9205 -25.6989 49.5236 -19.6557 56.677C-13.6125 63.8304 -18.0076 73.7351 -18.0076 73.7351C-18.0076 73.7351 -14.1619 74.8357 -13.6125 76.4865C-13.6125 76.4865 -10.3162 71.5341 -13.0631 65.4812C-13.0631 65.4812 -9.21745 69.8833 -9.21745 74.2854C-9.21745 74.2854 -7.56931 68.7828 -5.92117 68.2325C-5.92117 68.2325 -8.11869 74.2854 -5.92117 76.4865C-5.92117 76.4865 -3.72364 73.1849 -2.07549 73.7351C-2.07549 73.7351 -3.17426 62.1796 3.9677 55.0262C3.9677 55.0262 13.8566 41.2697 10.5603 18.1587C10.5603 18.1587 22.0973 26.4126 22.6467 36.3173C23.1961 46.222 22.6467 50.6241 22.6467 50.6241C22.6467 50.6241 26.4924 45.6718 36.3812 42.3702C36.3812 42.3702 30.8874 47.8728 32.5356 57.7775C32.5356 57.7775 34.1837 52.2749 36.3812 50.6241C36.3812 50.6241 34.7331 56.677 36.3812 58.8781C36.3812 58.8781 36.9306 55.0262 38.5788 54.476C38.5788 54.476 38.5788 58.8781 39.6775 59.4283C39.6775 59.4283 38.0294 49.5236 42.4244 42.9205C42.4244 42.9205 55.6096 23.6613 52.8627 0C52.8627 0 67.1466 7.15341 65.4985 31.365C65.4985 31.365 75.3873 23.111 78.6836 23.6613C78.6836 23.6613 74.838 29.1639 74.2886 36.3173C73.7392 43.4707 85.2762 57.7775 85.2762 57.7775C85.2762 57.7775 90.2207 46.7723 82.5293 39.6189C82.5293 39.6189 91.3194 41.8199 95.1651 47.8728C95.1651 47.8728 91.8688 26.4126 107.801 15.9576C107.801 15.9576 106.153 36.3173 111.097 45.1215C116.042 53.9257 119.887 61.6294 119.887 61.6294C119.887 61.6294 120.437 68.7828 119.887 73.7351C119.887 73.7351 122.085 68.2325 123.733 68.7828C123.733 68.7828 120.437 72.6346 120.986 74.2854C121.535 75.9362 125.381 75.9362 125.381 75.9362C125.381 75.9362 127.029 67.132 124.832 66.0315C124.832 66.0315 127.579 67.6823 127.579 69.8833C127.579 69.8833 128.677 58.8781 134.721 53.3754C140.764 47.8728 140.214 18.1587 140.214 18.1587C140.214 18.1587 151.751 23.111 152.85 50.6241C152.85 50.6241 156.696 44.021 165.486 41.8199C165.486 41.8199 161.091 45.1215 161.64 57.7775C161.64 57.7775 166.035 52.8252 166.035 49.5236C166.035 49.5236 163.838 57.2273 166.035 58.8781C168.233 60.5289 170.43 58.8781 170.43 58.8781C170.43 58.8781 166.035 48.4231 177.572 34.6665C189.109 20.91 182.517 0 182.517 0C182.517 0 193.504 7.15341 194.603 19.2592C195.702 31.365 194.603 31.9152 194.603 31.9152C194.603 31.9152 202.295 24.7618 207.788 23.6613C207.788 23.6613 200.646 35.2168 205.591 43.4707C205.591 43.4707 208.338 49.5236 211.634 52.2749C214.93 55.0262 214.381 57.2273 214.381 57.2273C214.381 57.2273 218.776 49.5236 212.183 39.6189C212.183 39.6189 218.227 40.1691 224.819 47.8728C224.819 47.8728 223.72 40.7194 226.467 32.4655C229.214 24.2115 237.455 15.4073 237.455 15.4073C237.455 15.4073 235.807 33.566 240.751 45.6718C240.751 45.6718 250.64 58.8781 250.64 67.6823V74.2854C250.64 74.2854 251.739 69.8833 253.387 68.7828C253.387 68.7828 251.739 74.2854 252.838 75.3859C252.838 75.3859 256.683 73.7351 253.936 66.0315C253.936 66.0315 257.233 68.2325 257.233 70.4336C257.233 70.4336 257.233 61.0791 266.572 49.5236C275.912 37.9681 269.869 17.6084 269.869 17.6084C269.869 17.6084 282.504 28.0634 282.504 38.5184C282.504 48.9733 282.504 50.0739 282.504 50.0739C282.504 50.0739 287.449 43.4707 295.14 41.8199C295.14 41.8199 289.097 52.2749 291.844 57.7775C291.844 57.7775 292.943 52.8252 295.14 50.6241C295.14 50.6241 293.492 57.2273 295.689 58.8781C297.887 60.5289 300.085 58.3278 300.085 58.3278C300.085 58.3278 297.338 45.6718 306.128 36.3173C314.918 26.9629 312.171 0 312.171 0C312.171 0 323.708 6.05289 324.807 19.2592C324.807 19.2592 325.905 29.1639 324.807 31.365C324.807 31.365 333.047 22.5608 337.992 23.6613C337.992 23.6613 328.652 33.566 336.344 45.6718C336.344 45.6718 343.486 52.2749 344.035 56.677C344.035 56.677 349.529 51.1744 341.838 39.6189C341.838 39.6189 348.43 40.1691 354.473 47.3226C354.473 47.3226 351.177 26.4126 367.659 15.4073C367.659 15.4073 366.01 41.2697 373.702 50.6241C381.393 59.9786 379.745 73.7351 379.745 73.7351C379.745 73.7351 380.844 75.9362 383.041 76.4865C385.239 77.0367 384.689 66.5817 384.14 66.0315C383.591 65.4812 387.986 70.9838 387.986 73.7351C387.986 73.7351 389.634 68.2325 391.282 68.2325C391.282 68.2325 389.634 72.6346 390.733 75.3859L395.128 73.1849C395.128 73.1849 391.282 63.8304 402.819 51.7247C414.356 39.6189 407.763 18.1587 407.763 18.1587C407.763 18.1587 419.3 27.5131 419.85 37.4178C419.85 37.4178 418.751 46.7723 420.399 49.5236C420.399 49.5236 426.442 42.9205 433.035 42.3702C433.035 42.3702 427.541 53.3754 429.739 57.7775C429.739 57.7775 430.288 53.9257 433.035 50.6241C433.035 50.6241 431.387 56.1268 433.035 58.8781C433.035 58.8781 433.035 59.9786 435.232 59.9786C437.43 59.9786 437.43 53.3754 437.43 53.3754C437.43 53.3754 437.979 41.2697 445.121 33.566C452.263 25.8623 450.066 0 450.066 0C450.066 0 461.053 5.50262 462.702 20.3597V85.8409H-86.6803V26.4126Z" fill="#C84916" fill-opacity="0.3"/>
</svg>
