<svg width="320" height="86" viewBox="0 0 320 86" fill="none" xmlns="http://www.w3.org/2000/svg">
<path d="M-142 26.4126C-142 26.4126 -138.704 20.91 -139.802 0C-139.802 0 -127.716 3.85184 -127.716 31.9152C-127.716 31.9152 -121.123 23.6613 -114.531 23.6613C-114.531 23.6613 -118.377 29.7142 -118.377 36.8676C-118.377 44.021 -113.432 49.5236 -113.432 49.5236C-113.432 49.5236 -107.938 53.9257 -107.938 57.2273C-107.938 57.2273 -102.445 56.1268 -110.136 39.0686C-110.136 39.0686 -104.917 39.894 -96.9507 47.8728C-96.9507 47.8728 -98.0495 36.3173 -96.9507 34.6665C-95.8519 33.0157 -92.0063 18.1587 -84.8643 15.4073C-84.8643 15.4073 -86.5124 38.5184 -82.1174 42.9205C-82.1174 42.9205 -81.0186 49.5236 -74.9754 56.677C-68.9322 63.8304 -73.3273 73.7351 -73.3273 73.7351C-73.3273 73.7351 -69.4816 74.8357 -68.9322 76.4865C-68.9322 76.4865 -65.6359 71.5341 -68.3828 65.4812C-68.3828 65.4812 -64.5372 69.8833 -64.5372 74.2854C-64.5372 74.2854 -62.889 68.7828 -61.2409 68.2325C-61.2409 68.2325 -63.4384 74.2854 -61.2409 76.4865C-61.2409 76.4865 -59.0433 73.1849 -57.3952 73.7351C-57.3952 73.7351 -58.494 62.1796 -51.352 55.0262C-51.352 55.0262 -41.4631 41.2697 -44.7594 18.1587C-44.7594 18.1587 -33.2224 26.4126 -32.673 36.3173C-32.1236 46.222 -32.673 50.6241 -32.673 50.6241C-32.673 50.6241 -28.8273 45.6718 -18.9385 42.3702C-18.9385 42.3702 -24.4323 47.8728 -22.7841 57.7775C-22.7841 57.7775 -21.136 52.2749 -18.9385 50.6241C-18.9385 50.6241 -20.5866 56.677 -18.9385 58.8781C-18.9385 58.8781 -18.3891 55.0262 -16.7409 54.476C-16.7409 54.476 -16.7409 58.8781 -15.6422 59.4283C-15.6422 59.4283 -17.2903 49.5236 -12.8953 42.9205C-12.8953 42.9205 0.289902 23.6613 -2.45702 0C-2.45702 0 11.8269 7.15341 10.1788 31.365C10.1788 31.365 20.0676 23.111 23.3639 23.6613C23.3639 23.6613 19.5183 29.1639 18.9689 36.3173C18.4195 43.4707 29.9565 57.7775 29.9565 57.7775C29.9565 57.7775 34.901 46.7723 27.2096 39.6189C27.2096 39.6189 35.9997 41.8199 39.8454 47.8728C39.8454 47.8728 36.5491 26.4126 52.4812 15.9576C52.4812 15.9576 50.833 36.3173 55.7775 45.1215C60.7219 53.9257 64.5676 61.6294 64.5676 61.6294C64.5676 61.6294 65.117 68.7828 64.5676 73.7351C64.5676 73.7351 66.7651 68.2325 68.4133 68.7828C68.4133 68.7828 65.117 72.6346 65.6663 74.2854C66.2157 75.9362 70.0614 75.9362 70.0614 75.9362C70.0614 75.9362 71.7095 67.132 69.512 66.0315C69.512 66.0315 72.2589 67.6823 72.2589 69.8833C72.2589 69.8833 73.3577 58.8781 79.4009 53.3754C85.4441 47.8728 84.8947 18.1587 84.8947 18.1587C84.8947 18.1587 96.4317 23.111 97.5305 50.6241C97.5305 50.6241 101.376 44.021 110.166 41.8199C110.166 41.8199 105.771 45.1215 106.321 57.7775C106.321 57.7775 110.716 52.8252 110.716 49.5236C110.716 49.5236 108.518 57.2273 110.716 58.8781C112.913 60.5289 115.111 58.8781 115.111 58.8781C115.111 58.8781 110.716 48.4231 122.253 34.6665C133.79 20.91 127.197 0 127.197 0C127.197 0 138.185 7.15341 139.284 19.2592C140.382 31.365 139.284 31.9152 139.284 31.9152C139.284 31.9152 146.975 24.7618 152.469 23.6613C152.469 23.6613 145.327 35.2168 150.271 43.4707C150.271 43.4707 153.018 49.5236 156.314 52.2749C159.611 55.0262 159.061 57.2273 159.061 57.2273C159.061 57.2273 163.456 49.5236 156.864 39.6189C156.864 39.6189 162.907 40.1691 169.5 47.8728C169.5 47.8728 168.401 40.7194 171.148 32.4655C173.895 24.2115 182.135 15.4073 182.135 15.4073C182.135 15.4073 180.487 33.566 185.432 45.6718C185.432 45.6718 195.32 58.8781 195.32 67.6823V74.2854C195.32 74.2854 196.419 69.8833 198.067 68.7828C198.067 68.7828 196.419 74.2854 197.518 75.3859C197.518 75.3859 201.364 73.7351 198.617 66.0315C198.617 66.0315 201.913 68.2325 201.913 70.4336C201.913 70.4336 201.913 61.0791 211.253 49.5236C220.592 37.9681 214.549 17.6084 214.549 17.6084C214.549 17.6084 227.185 28.0634 227.185 38.5184C227.185 48.9733 227.185 50.0739 227.185 50.0739C227.185 50.0739 232.129 43.4707 239.82 41.8199C239.82 41.8199 233.777 52.2749 236.524 57.7775C236.524 57.7775 237.623 52.8252 239.82 50.6241C239.82 50.6241 238.172 57.2273 240.37 58.8781C242.567 60.5289 244.765 58.3278 244.765 58.3278C244.765 58.3278 242.018 45.6718 250.808 36.3173C259.598 26.9629 256.851 0 256.851 0C256.851 0 268.388 6.05289 269.487 19.2592C269.487 19.2592 270.586 29.1639 269.487 31.365C269.487 31.365 277.728 22.5608 282.672 23.6613C282.672 23.6613 273.333 33.566 281.024 45.6718C281.024 45.6718 288.166 52.2749 288.715 56.677C288.715 56.677 294.209 51.1744 286.518 39.6189C286.518 39.6189 293.11 40.1691 299.154 47.3226C299.154 47.3226 295.857 26.4126 312.339 15.4073C312.339 15.4073 310.691 41.2697 318.382 50.6241C326.073 59.9786 324.425 73.7351 324.425 73.7351C324.425 73.7351 325.524 75.9362 327.721 76.4865C329.919 77.0367 329.37 66.5817 328.82 66.0315C328.271 65.4812 332.666 70.9838 332.666 73.7351C332.666 73.7351 334.314 68.2325 335.962 68.2325C335.962 68.2325 334.314 72.6346 335.413 75.3859L339.808 73.1849C339.808 73.1849 335.962 63.8304 347.499 51.7247C359.036 39.6189 352.444 18.1587 352.444 18.1587C352.444 18.1587 363.981 27.5131 364.53 37.4178C364.53 37.4178 363.431 46.7723 365.079 49.5236C365.079 49.5236 371.123 42.9205 377.715 42.3702C377.715 42.3702 372.221 53.3754 374.419 57.7775C374.419 57.7775 374.968 53.9257 377.715 50.6241C377.715 50.6241 376.067 56.1268 377.715 58.8781C377.715 58.8781 377.715 59.9786 379.913 59.9786C382.11 59.9786 382.11 53.3754 382.11 53.3754C382.11 53.3754 382.66 41.2697 389.802 33.566C396.944 25.8623 394.746 0 394.746 0C394.746 0 405.734 5.50262 407.382 20.3597V85.8409H-142V26.4126Z" fill="#C84916" fill-opacity="0.1"/>
</svg>
