<svg width="320" height="87" viewBox="0 0 320 87" fill="none" xmlns="http://www.w3.org/2000/svg">
<path d="M-116.057 26.7017C-116.057 26.7017 -112.761 21.199 -113.859 0.289062C-113.859 0.289062 -101.773 4.1409 -101.773 32.2043C-101.773 32.2043 -95.1804 23.9503 -88.5879 23.9503C-88.5879 23.9503 -92.4335 30.0032 -92.4335 37.1566C-92.4335 44.31 -87.4891 49.8127 -87.4891 49.8127C-87.4891 49.8127 -81.9953 54.2148 -81.9953 57.5163C-81.9953 57.5163 -76.5015 56.4158 -84.1928 39.3577C-84.1928 39.3577 -78.9737 40.1831 -71.0076 48.1619C-71.0076 48.1619 -72.1064 36.6064 -71.0076 34.9556C-69.9089 33.3048 -66.0632 18.4477 -58.9212 15.6964C-58.9212 15.6964 -60.5694 38.8074 -56.1743 43.2095C-56.1743 43.2095 -55.0756 49.8127 -49.0324 56.9661C-42.9892 64.1195 -47.3842 74.0242 -47.3842 74.0242C-47.3842 74.0242 -43.5385 75.1247 -42.9892 76.7755C-42.9892 76.7755 -39.6929 71.8232 -42.4398 65.7703C-42.4398 65.7703 -38.5941 70.1724 -38.5941 74.5745C-38.5941 74.5745 -36.946 69.0718 -35.2978 68.5216C-35.2978 68.5216 -37.4953 74.5745 -35.2978 76.7755C-35.2978 76.7755 -33.1003 73.4739 -31.4521 74.0242C-31.4521 74.0242 -32.5509 62.4687 -25.4089 55.3153C-25.4089 55.3153 -15.5201 41.5587 -18.8164 18.4477C-18.8164 18.4477 -7.27934 26.7017 -6.72996 36.6064C-6.18057 46.5111 -6.72996 50.9132 -6.72996 50.9132C-6.72996 50.9132 -2.88428 45.9608 7.00459 42.6593C7.00459 42.6593 1.51077 48.1619 3.15891 58.0666C3.15891 58.0666 4.80706 52.564 7.00459 50.9132C7.00459 50.9132 5.35645 56.9661 7.00459 59.1671C7.00459 59.1671 7.55397 55.3153 9.20212 54.765C9.20212 54.765 9.20212 59.1671 10.3009 59.7174C10.3009 59.7174 8.65273 49.8127 13.0478 43.2095C13.0478 43.2095 26.233 23.9503 23.486 0.289062C23.486 0.289062 37.77 7.44247 36.1218 31.654C36.1218 31.654 46.0107 23.4001 49.307 23.9503C49.307 23.9503 45.4613 29.453 44.9119 36.6064C44.3625 43.7598 55.8996 58.0666 55.8996 58.0666C55.8996 58.0666 60.844 47.0614 53.1527 39.9079C53.1527 39.9079 61.9428 42.109 65.7885 48.1619C65.7885 48.1619 62.4922 26.7017 78.4242 16.2467C78.4242 16.2467 76.7761 36.6064 81.7205 45.4106C86.665 54.2148 90.5106 61.9184 90.5106 61.9184C90.5106 61.9184 91.06 69.0718 90.5106 74.0242C90.5106 74.0242 92.7082 68.5216 94.3563 69.0718C94.3563 69.0718 91.06 72.9237 91.6094 74.5745C92.1588 76.2253 96.0045 76.2253 96.0045 76.2253C96.0045 76.2253 97.6526 67.4211 95.4551 66.3205C95.4551 66.3205 98.202 67.9713 98.202 70.1724C98.202 70.1724 99.3007 59.1671 105.344 53.6645C111.387 48.1619 110.838 18.4477 110.838 18.4477C110.838 18.4477 122.375 23.4001 123.474 50.9132C123.474 50.9132 127.319 44.31 136.109 42.109C136.109 42.109 131.714 45.4106 132.264 58.0666C132.264 58.0666 136.659 53.1142 136.659 49.8127C136.659 49.8127 134.461 57.5163 136.659 59.1671C138.856 60.8179 141.054 59.1671 141.054 59.1671C141.054 59.1671 136.659 48.7121 148.196 34.9556C159.733 21.199 153.14 0.289062 153.14 0.289062C153.14 0.289062 164.128 7.44247 165.227 19.5482C166.325 31.654 165.227 32.2043 165.227 32.2043C165.227 32.2043 172.918 25.0509 178.412 23.9503C178.412 23.9503 171.27 35.5058 176.214 43.7598C176.214 43.7598 178.961 49.8127 182.257 52.564C185.554 55.3153 185.004 57.5163 185.004 57.5163C185.004 57.5163 189.399 49.8127 182.807 39.9079C182.807 39.9079 188.85 40.4582 195.443 48.1619C195.443 48.1619 194.344 41.0085 197.091 32.7545C199.838 24.5006 208.078 15.6964 208.078 15.6964C208.078 15.6964 206.43 33.8551 211.375 45.9608C211.375 45.9608 221.264 59.1671 221.264 67.9713V74.5745C221.264 74.5745 222.362 70.1724 224.01 69.0718C224.01 69.0718 222.362 74.5745 223.461 75.675C223.461 75.675 227.307 74.0242 224.56 66.3205C224.56 66.3205 227.856 68.5216 227.856 70.7226C227.856 70.7226 227.856 61.3682 237.196 49.8127C246.535 38.2572 240.492 17.8975 240.492 17.8975C240.492 17.8975 253.128 28.3524 253.128 38.8074C253.128 49.2624 253.128 50.3629 253.128 50.3629C253.128 50.3629 258.072 43.7598 265.763 42.109C265.763 42.109 259.72 52.564 262.467 58.0666C262.467 58.0666 263.566 53.1142 265.763 50.9132C265.763 50.9132 264.115 57.5163 266.313 59.1671C268.51 60.8179 270.708 58.6169 270.708 58.6169C270.708 58.6169 267.961 45.9608 276.751 36.6064C285.541 27.2519 282.794 0.289062 282.794 0.289062C282.794 0.289062 294.331 6.34195 295.43 19.5482C295.43 19.5482 296.529 29.453 295.43 31.654C295.43 31.654 303.671 22.8498 308.615 23.9503C308.615 23.9503 299.276 33.8551 306.967 45.9608C306.967 45.9608 314.109 52.564 314.658 56.9661C314.658 56.9661 320.152 51.4635 312.461 39.9079C312.461 39.9079 319.053 40.4582 325.097 47.6116C325.097 47.6116 321.8 26.7017 338.282 15.6964C338.282 15.6964 336.634 41.5587 344.325 50.9132C352.016 60.2677 350.368 74.0242 350.368 74.0242C350.368 74.0242 351.467 76.2253 353.665 76.7755C355.862 77.3258 355.313 66.8708 354.763 66.3205C354.214 65.7703 358.609 71.2729 358.609 74.0242C358.609 74.0242 360.257 68.5216 361.905 68.5216C361.905 68.5216 360.257 72.9237 361.356 75.675L365.751 73.4739C365.751 73.4739 361.905 64.1195 373.442 52.0137C384.979 39.9079 378.387 18.4477 378.387 18.4477C378.387 18.4477 389.924 27.8022 390.473 37.7069C390.473 37.7069 389.374 47.0614 391.022 49.8127C391.022 49.8127 397.066 43.2095 403.658 42.6593C403.658 42.6593 398.164 53.6645 400.362 58.0666C400.362 58.0666 400.911 54.2148 403.658 50.9132C403.658 50.9132 402.01 56.4158 403.658 59.1671C403.658 59.1671 403.658 60.2677 405.856 60.2677C408.053 60.2677 408.053 53.6645 408.053 53.6645C408.053 53.6645 408.603 41.5587 415.745 33.8551C422.887 26.1514 420.689 0.289062 420.689 0.289062C420.689 0.289062 431.677 5.79169 433.325 20.6488V86.13H-116.057V26.7017Z" fill="#C84916"/>
</svg>
