<svg xmlns="http://www.w3.org/2000/svg" width="44" height="44" viewBox="0 0 44 44"><g><g><path fill="#fff" d="M.702 25.107L.006 32.85c-.092.84.835 1.493 1.576 1.073l2.133-1.073c3.476 6.623 10.382 11.148 18.308 11.148 9.317 0 17.196-6.204 19.792-14.74.324-1.072-.51-2.192-1.622-2.192-.742 0-1.39.513-1.623 1.213-2.178 7.136-8.76 12.314-16.547 12.314-6.628 0-12.422-3.778-15.296-9.282l2.179-1.12c.788-.373.788-1.492.093-1.912L2.37 24.268c-.695-.42-1.576.046-1.668.84z"/></g><g><path fill="#fff" d="M22.023 0C12.706 0 4.826 6.204 2.23 14.74c-.325 1.072.51 2.192 1.622 2.192.742 0 1.39-.513 1.622-1.213 2.179-7.137 8.76-12.314 16.548-12.314 6.628 0 12.422 3.778 15.296 9.282l-2.179 1.12c-.788.373-.788 1.492-.093 1.912l6.582 4.011c.695.42 1.576-.046 1.669-.84l.695-7.696c.093-.84-.834-1.492-1.576-1.072l-2.132 1.072C36.855 4.524 29.949 0 22.023 0z"/></g></g></svg>