<svg xmlns="http://www.w3.org/2000/svg" width="110" height="48" viewBox="0 0 110 48"><g><g><g/><g><path fill="#e61801" d="M0 14.2c0-3.8 1.5-7.4 4.1-10.1C6.7 1.5 10.3 0 14 0h32.4v7.2H14c-1.8 0-3.6.7-4.9 2.1-1.3 1.3-2 3.1-2 4.9v12.2c-.1 1.6-.8 3-1.9 4.2-1.1 1.1-2.4 1.9-4 2.1l-1.2.2z"/></g><g><path fill="#e61801" d="M0 47v-7.2h32.4c1.8 0 3.6-.7 4.9-2.1 1.3-1.3 2-3.1 2-4.9V21.3c0-1.7.6-3.3 1.7-4.6 1.1-1.3 2.6-2.1 4.2-2.4l1.3-.2v18.7c0 3.8-1.5 7.4-4.1 10.1-2.6 2.7-6.2 4.2-9.9 4.2H0z"/></g><g><path fill="#e61801" d="M26.7 32.9v-7.2h-7.1v7.2h-4.8V14.5h4.8v6.9h7.1v-6.9h4.8v18.4z"/></g></g><g><g/><g><path fill="#fff" d="M102.482 6.519c.231-.458.231-.458 1.388-3.429-2.892-.343-4.511-.571-7.056-.571C93.46.919 89.874-.11 85.942-.11 72.757.004 62 10.747 62 24.004c0 13.257 10.757 24 23.942 24 13.301 0 23.942-10.743 23.942-24 .116-6.857-2.776-13.028-7.402-17.485z"/></g><g><path fill="#e61801" d="M79.585 43.317a20.036 20.036 0 0 0 6.362 1.029c11.219 0 20.356-9.143 20.356-20.457 0-5.372-2.197-10.4-5.667-14.058h-.231c-1.042 1.143-2.198 2.172-3.355 2.972-2.544 1.6-5.436 2.514-8.443 2.514-5.668 0-8.79-2.743-11.335-4.686l-.116-.114s0-.114.116-.114c4.048-3.086 7.287-5.029 10.64-6.172.117 0 .117-.114.117-.228 0-.115-.116-.115-.232-.229h-1.85c-11.22-.228-20.357 8.914-20.357 20.229 0 6.171 2.776 11.771 7.171 15.543 0 0 1.735 2.057 6.824 3.771z"/></g><g><path fill="#78b617" d="M80.74 10.516c6.708 5.143 16.655 2.514 20.01-5.486"/></g><g><path fill="#28a62a" d="M80.74 10.515c7.055-.685 13.764-2.514 19.894-5.485"/></g><g><g><path fill="#fff" d="M84.358 18.743c-1.272 1.028-2.66 2.286-3.817 3.657 0 0 1.041-.457 3.007-.457 7.056 0 9.832 5.143 9.254 9.828-.926 7.315-6.709 12-14.343 12-7.98 0-12.26-4.342-11.335-12.228.232-1.943 1.504-8.572 9.832-15.543l.231.343c1.388 1.371 3.123 2.286 5.09 2.4zm-.115 13.714c.23-1.943-1.504-3.543-3.817-3.543-2.314 0-4.511 1.6-4.743 3.543C75.453 34.4 77.187 36 79.5 36c2.314 0 4.511-1.6 4.743-3.543z"/></g></g></g></g></svg>