<svg xmlns="http://www.w3.org/2000/svg" width="550" height="86" viewBox="0 0 550 86"><g><g><path fill="#c84916" fill-opacity=".1" d="M0 26.413S3.296 20.91 2.198 0c0 0 12.086 3.852 12.086 31.915 0 0 6.593-8.254 13.185-8.254 0 0-3.846 6.053-3.846 13.207 0 7.153 4.945 12.656 4.945 12.656s5.494 4.402 5.494 7.703c0 0 5.494-1.1-2.198-18.158 0 0 5.22.825 13.185 8.804 0 0-1.098-11.556 0-13.207 1.1-1.65 4.945-16.507 12.087-19.259 0 0-1.648 23.111 2.747 27.513 0 0 1.098 6.604 7.142 13.757 6.043 7.153 1.648 17.058 1.648 17.058s3.845 1.1 4.395 2.751c0 0 3.296-4.952.55-11.005 0 0 3.845 4.402 3.845 8.804 0 0 1.648-5.502 3.296-6.053 0 0-2.197 6.053 0 8.254 0 0 2.198-3.301 3.846-2.75 0 0-1.099-11.556 6.043-18.71 0 0 9.889-13.756 6.593-36.867 0 0 11.537 8.254 12.086 18.158.549 9.905 0 14.307 0 14.307s3.846-4.952 13.735-8.254c0 0-5.494 5.503-3.846 15.407 0 0 1.648-5.502 3.846-7.153 0 0-1.649 6.053 0 8.254 0 0 .549-3.852 2.197-4.402 0 0 0 4.402 1.099 4.952 0 0-1.648-9.904 2.747-16.508 0 0 13.185-19.259 10.438-42.92 0 0 14.284 7.153 12.636 31.365 0 0 9.889-8.254 13.185-7.704 0 0-3.846 5.503-4.395 12.656-.55 7.154 10.988 21.46 10.988 21.46s4.944-11.005-2.747-18.158c0 0 8.79 2.2 12.635 8.254 0 0-3.296-21.46 12.636-31.915 0 0-1.648 20.36 3.296 29.163 4.945 8.805 8.791 16.508 8.791 16.508s.549 7.154 0 12.106c0 0 2.197-5.502 3.845-4.952 0 0-3.296 3.852-2.747 5.502.55 1.651 4.395 1.651 4.395 1.651s1.649-8.804-.549-9.904c0 0 2.747 1.65 2.747 3.851 0 0 1.099-11.005 7.142-16.508 6.043-5.502 5.494-35.216 5.494-35.216s11.537 4.952 12.635 32.465c0 0 3.846-6.603 12.636-8.804 0 0-4.395 3.302-3.845 15.958 0 0 4.395-4.953 4.395-8.254 0 0-2.198 7.703 0 9.354 2.197 1.65 4.395 0 4.395 0s-4.395-10.455 7.142-24.211C275.79 20.91 269.197 0 269.197 0s10.988 7.153 12.087 19.26c1.098 12.105 0 12.655 0 12.655s7.691-7.153 13.185-8.254c0 0-7.142 11.556-2.198 19.81 0 0 2.747 6.053 6.043 8.804 3.297 2.751 2.747 4.952 2.747 4.952s4.395-7.703-2.197-17.608c0 0 6.043.55 12.636 8.254 0 0-1.099-7.154 1.648-15.407 2.747-8.255 10.987-17.059 10.987-17.059s-1.648 18.159 3.297 30.265c0 0 9.888 13.206 9.888 22.01v6.603s1.099-4.402 2.747-5.502c0 0-1.648 5.502-.549 6.603 0 0 3.846-1.65 1.099-9.355 0 0 3.296 2.201 3.296 4.403 0 0 0-9.355 9.34-20.91 9.339-11.556 3.296-31.916 3.296-31.916s12.636 10.455 12.636 20.91v11.556s4.944-6.603 12.635-8.254c0 0-6.043 10.455-3.296 15.958 0 0 1.099-4.953 3.296-7.154 0 0-1.648 6.603.55 8.254 2.197 1.65 4.395-.55 4.395-.55s-2.747-12.656 6.043-22.01C401.598 26.962 398.851 0 398.851 0s11.537 6.053 12.636 19.26c0 0 1.099 9.904 0 12.105 0 0 8.241-8.804 13.185-7.704 0 0-9.339 9.905-1.648 22.01 0 0 7.142 6.604 7.691 11.006 0 0 5.494-5.503-2.197-17.058 0 0 6.592.55 12.636 7.704 0 0-3.297-20.91 13.185-31.916 0 0-1.648 25.863 6.043 35.217 7.691 9.355 6.043 23.111 6.043 23.111s1.099 2.201 3.296 2.752c2.198.55 1.649-9.905 1.099-10.455-.549-.55 3.846 4.952 3.846 7.703 0 0 1.648-5.502 3.296-5.502 0 0-1.648 4.402-.549 7.153l4.395-2.201s-3.846-9.355 7.691-21.46c11.537-12.106 4.945-33.566 4.945-33.566s11.537 9.354 12.086 19.259c0 0-1.099 9.354.549 12.106 0 0 6.044-6.603 12.636-7.154 0 0-5.494 11.005-3.296 15.408 0 0 .549-3.852 3.296-7.154 0 0-1.648 5.503 0 8.254 0 0 0 1.1 2.198 1.1 2.197 0 2.197-6.603 2.197-6.603s.55-12.105 7.692-19.809C538.944 25.862 536.746 0 536.746 0s10.988 5.503 12.636 20.36v65.48H0z"/></g></g></svg>