<svg xmlns="http://www.w3.org/2000/svg" width="26" height="18" viewBox="0 0 26 18"><g><g><g transform="rotate(90 12.5 1.5)"><path fill="#fff" d="M14.13 12.005a1.125 1.125 0 0 1-2.25 0v-21.75a1.125 1.125 0 0 1 2.25 0z"/></g><g transform="rotate(90 13 9)"><path fill="#fff" d="M14.13 19.875a1.125 1.125 0 0 1-2.25 0v-21.75a1.125 1.125 0 0 1 2.25 0z"/></g><g transform="rotate(90 13.5 16.5)"><path fill="#fff" d="M14.13 27.755a1.125 1.125 0 0 1-2.25 0V6.005a1.125 1.125 0 0 1 2.25 0z"/></g></g></g></svg>