<svg xmlns="http://www.w3.org/2000/svg" width="48" height="48" viewBox="0 0 48 48"><defs><clipPath id="mlfva"><path fill="#fff" d="M48 24c0 13.255-10.745 24-24 24S0 37.255 0 24 10.745 0 24 0s24 10.745 24 24z"/></clipPath></defs><g><g><path fill="none" stroke="#f9f9f8" stroke-miterlimit="20" stroke-width="4" d="M48 24c0 13.255-10.745 24-24 24S0 37.255 0 24 10.745 0 24 0s24 10.745 24 24z" clip-path="url(&quot;#mlfva&quot;)"/></g><g><g/><g><g/><g><g><path fill="#f9f9f8" d="M17.143 24.8c-.343 0-.572-.114-.8-.343a1.105 1.105 0 0 1 0-1.6l6.171-6.4c.343-.228.686-.457 1.143-.457.343 0 .686.229 1.029.457l6.514 6.4a1.105 1.105 0 0 1 0 1.6 1.105 1.105 0 0 1-1.6 0l-5.943-5.828-5.714 5.828c-.229.229-.457.343-.8.343z"/></g><g><path fill="#f9f9f8" d="M23.653 32c-.686 0-1.143-.457-1.143-1.143V17.143c0-.686.457-1.143 1.143-1.143.686 0 1.143.457 1.143 1.143v13.714c0 .686-.457 1.143-1.143 1.143z"/></g></g></g></g></g></svg>