<svg width="1363" height="225" viewBox="0 0 1363 225" fill="none" xmlns="http://www.w3.org/2000/svg">
<path d="M0 69.2308C0 69.2308 8.64 54.8077 5.76 0C5.76 0 37.44 10.0962 37.44 83.6538C37.44 83.6538 54.72 62.0192 72 62.0192C72 62.0192 61.92 77.8846 61.92 96.6346C61.92 115.385 74.88 129.808 74.88 129.808C74.88 129.808 89.28 141.346 89.28 150C89.28 150 103.68 147.115 83.52 102.404C83.52 102.404 97.2 104.567 118.08 125.481C118.08 125.481 115.2 95.1923 118.08 90.8654C120.96 86.5385 131.04 47.5962 149.76 40.3846C149.76 40.3846 145.44 100.962 156.96 112.5C156.96 112.5 159.84 129.808 175.68 148.558C191.52 167.308 180 193.269 180 193.269C180 193.269 190.08 196.154 191.52 200.481C191.52 200.481 200.16 187.5 192.96 171.635C192.96 171.635 203.04 183.173 203.04 194.712C203.04 194.712 207.36 180.288 211.68 178.846C211.68 178.846 205.92 194.712 211.68 200.481C211.68 200.481 217.44 191.827 221.76 193.269C221.76 193.269 218.88 162.981 237.6 144.231C237.6 144.231 263.52 108.173 254.88 47.5962C254.88 47.5962 285.12 69.2308 286.56 95.1923C288 121.154 286.56 132.692 286.56 132.692C286.56 132.692 296.64 119.712 322.56 111.058C322.56 111.058 308.16 125.481 312.48 151.442C312.48 151.442 316.8 137.019 322.56 132.692C322.56 132.692 318.24 148.558 322.56 154.327C322.56 154.327 324 144.231 328.32 142.788C328.32 142.788 328.32 154.327 331.2 155.769C331.2 155.769 326.88 129.808 338.4 112.5C338.4 112.5 372.96 62.0192 365.76 0C365.76 0 403.2 18.75 398.88 82.2115C398.88 82.2115 424.8 60.5769 433.44 62.0192C433.44 62.0192 423.36 76.4423 421.92 95.1923C420.48 113.942 450.72 151.442 450.72 151.442C450.72 151.442 463.68 122.596 443.52 103.846C443.52 103.846 466.56 109.615 476.64 125.481C476.64 125.481 468 69.2308 509.76 41.8269C509.76 41.8269 505.44 95.1923 518.4 118.269C531.36 141.346 541.44 161.538 541.44 161.538C541.44 161.538 542.88 180.288 541.44 193.269C541.44 193.269 547.2 178.846 551.52 180.288C551.52 180.288 542.88 190.385 544.32 194.712C545.76 199.038 555.84 199.038 555.84 199.038C555.84 199.038 560.16 175.962 554.4 173.077C554.4 173.077 561.6 177.404 561.6 183.173C561.6 183.173 564.48 154.327 580.32 139.904C596.16 125.481 594.72 47.5962 594.72 47.5962C594.72 47.5962 624.96 60.5769 627.84 132.692C627.84 132.692 637.92 115.385 660.96 109.615C660.96 109.615 649.44 118.269 650.88 151.442C650.88 151.442 662.4 138.462 662.4 129.808C662.4 129.808 656.64 150 662.4 154.327C668.16 158.654 673.92 154.327 673.92 154.327C673.92 154.327 662.4 126.923 692.64 90.8654C722.88 54.8077 705.6 0 705.6 0C705.6 0 734.4 18.75 737.28 50.4808C740.16 82.2115 737.28 83.6538 737.28 83.6538C737.28 83.6538 757.44 64.9038 771.84 62.0192C771.84 62.0192 753.12 92.3077 766.08 113.942C766.08 113.942 773.28 129.808 781.92 137.019C790.56 144.231 789.12 150 789.12 150C789.12 150 800.64 129.808 783.36 103.846C783.36 103.846 799.2 105.288 816.48 125.481C816.48 125.481 813.6 106.731 820.8 85.0962C828 63.4615 849.6 40.3846 849.6 40.3846C849.6 40.3846 845.28 87.9808 858.24 119.712C858.24 119.712 884.16 154.327 884.16 177.404V194.712C884.16 194.712 887.04 183.173 891.36 180.288C891.36 180.288 887.04 194.712 889.92 197.596C889.92 197.596 900 193.269 892.8 173.077C892.8 173.077 901.44 178.846 901.44 184.615C901.44 184.615 901.44 160.096 925.92 129.808C950.4 99.5192 934.56 46.1538 934.56 46.1538C934.56 46.1538 967.68 73.5577 967.68 100.962C967.68 128.365 967.68 131.25 967.68 131.25C967.68 131.25 980.64 113.942 1000.8 109.615C1000.8 109.615 984.96 137.019 992.16 151.442C992.16 151.442 995.04 138.462 1000.8 132.692C1000.8 132.692 996.48 150 1002.24 154.327C1008 158.654 1013.76 152.885 1013.76 152.885C1013.76 152.885 1006.56 119.712 1029.6 95.1923C1052.64 70.6731 1045.44 0 1045.44 0C1045.44 0 1075.68 15.8654 1078.56 50.4808C1078.56 50.4808 1081.44 76.4423 1078.56 82.2115C1078.56 82.2115 1100.16 59.1346 1113.12 62.0192C1113.12 62.0192 1088.64 87.9808 1108.8 119.712C1108.8 119.712 1127.52 137.019 1128.96 148.558C1128.96 148.558 1143.36 134.135 1123.2 103.846C1123.2 103.846 1140.48 105.288 1156.32 124.038C1156.32 124.038 1147.68 69.2308 1190.88 40.3846C1190.88 40.3846 1186.56 108.173 1206.72 132.692C1226.88 157.212 1222.56 193.269 1222.56 193.269C1222.56 193.269 1225.44 199.038 1231.2 200.481C1236.96 201.923 1235.52 174.519 1234.08 173.077C1232.64 171.635 1244.16 186.058 1244.16 193.269C1244.16 193.269 1248.48 178.846 1252.8 178.846C1252.8 178.846 1248.48 190.385 1251.36 197.596L1262.88 191.827C1262.88 191.827 1252.8 167.308 1283.04 135.577C1313.28 103.846 1296 47.5962 1296 47.5962C1296 47.5962 1326.24 72.1154 1327.68 98.0769C1327.68 98.0769 1324.8 122.596 1329.12 129.808C1329.12 129.808 1344.96 112.5 1362.24 111.058C1362.24 111.058 1347.84 139.904 1353.6 151.442C1353.6 151.442 1355.04 141.346 1362.24 132.692C1362.24 132.692 1357.92 147.115 1362.24 154.327C1362.24 154.327 1362.24 157.212 1368 157.212C1373.76 157.212 1373.76 139.904 1373.76 139.904C1373.76 139.904 1375.2 108.173 1393.92 87.9808C1412.64 67.7885 1406.88 0 1406.88 0C1406.88 0 1435.68 14.4231 1440 53.3654V225H0V69.2308Z" fill="#C84916" fill-opacity="0.3"/>
</svg>
