<svg width="1372" height="225" viewBox="0 0 1372 225" fill="none" xmlns="http://www.w3.org/2000/svg">
<path d="M-68 69.2308C-68 69.2308 -59.36 54.8077 -62.24 0C-62.24 0 -30.56 10.0962 -30.56 83.6538C-30.56 83.6538 -13.28 62.0192 4 62.0192C4 62.0192 -6.08 77.8846 -6.08 96.6346C-6.08 115.385 6.88 129.808 6.88 129.808C6.88 129.808 21.28 141.346 21.28 150C21.28 150 35.68 147.115 15.52 102.404C15.52 102.404 29.2 104.567 50.08 125.481C50.08 125.481 47.2 95.1923 50.08 90.8654C52.96 86.5385 63.04 47.5962 81.76 40.3846C81.76 40.3846 77.44 100.962 88.96 112.5C88.96 112.5 91.84 129.808 107.68 148.558C123.52 167.308 112 193.269 112 193.269C112 193.269 122.08 196.154 123.52 200.481C123.52 200.481 132.16 187.5 124.96 171.635C124.96 171.635 135.04 183.173 135.04 194.712C135.04 194.712 139.36 180.288 143.68 178.846C143.68 178.846 137.92 194.712 143.68 200.481C143.68 200.481 149.44 191.827 153.76 193.269C153.76 193.269 150.88 162.981 169.6 144.231C169.6 144.231 195.52 108.173 186.88 47.5962C186.88 47.5962 217.12 69.2308 218.56 95.1923C220 121.154 218.56 132.692 218.56 132.692C218.56 132.692 228.64 119.712 254.56 111.058C254.56 111.058 240.16 125.481 244.48 151.442C244.48 151.442 248.8 137.019 254.56 132.692C254.56 132.692 250.24 148.558 254.56 154.327C254.56 154.327 256 144.231 260.32 142.788C260.32 142.788 260.32 154.327 263.2 155.769C263.2 155.769 258.88 129.808 270.4 112.5C270.4 112.5 304.96 62.0192 297.76 0C297.76 0 335.2 18.75 330.88 82.2115C330.88 82.2115 356.8 60.5769 365.44 62.0192C365.44 62.0192 355.36 76.4423 353.92 95.1923C352.48 113.942 382.72 151.442 382.72 151.442C382.72 151.442 395.68 122.596 375.52 103.846C375.52 103.846 398.56 109.615 408.64 125.481C408.64 125.481 400 69.2308 441.76 41.8269C441.76 41.8269 437.44 95.1923 450.4 118.269C463.36 141.346 473.44 161.538 473.44 161.538C473.44 161.538 474.88 180.288 473.44 193.269C473.44 193.269 479.2 178.846 483.52 180.288C483.52 180.288 474.88 190.385 476.32 194.712C477.76 199.038 487.84 199.038 487.84 199.038C487.84 199.038 492.16 175.962 486.4 173.077C486.4 173.077 493.6 177.404 493.6 183.173C493.6 183.173 496.48 154.327 512.32 139.904C528.16 125.481 526.72 47.5962 526.72 47.5962C526.72 47.5962 556.96 60.5769 559.84 132.692C559.84 132.692 569.92 115.385 592.96 109.615C592.96 109.615 581.44 118.269 582.88 151.442C582.88 151.442 594.4 138.462 594.4 129.808C594.4 129.808 588.64 150 594.4 154.327C600.16 158.654 605.92 154.327 605.92 154.327C605.92 154.327 594.4 126.923 624.64 90.8654C654.88 54.8077 637.6 0 637.6 0C637.6 0 666.4 18.75 669.28 50.4808C672.16 82.2115 669.28 83.6538 669.28 83.6538C669.28 83.6538 689.44 64.9038 703.84 62.0192C703.84 62.0192 685.12 92.3077 698.08 113.942C698.08 113.942 705.28 129.808 713.92 137.019C722.56 144.231 721.12 150 721.12 150C721.12 150 732.64 129.808 715.36 103.846C715.36 103.846 731.2 105.288 748.48 125.481C748.48 125.481 745.6 106.731 752.8 85.0962C760 63.4615 781.6 40.3846 781.6 40.3846C781.6 40.3846 777.28 87.9808 790.24 119.712C790.24 119.712 816.16 154.327 816.16 177.404V194.712C816.16 194.712 819.04 183.173 823.36 180.288C823.36 180.288 819.04 194.712 821.92 197.596C821.92 197.596 832 193.269 824.8 173.077C824.8 173.077 833.44 178.846 833.44 184.615C833.44 184.615 833.44 160.096 857.92 129.808C882.4 99.5192 866.56 46.1538 866.56 46.1538C866.56 46.1538 899.68 73.5577 899.68 100.962C899.68 128.365 899.68 131.25 899.68 131.25C899.68 131.25 912.64 113.942 932.8 109.615C932.8 109.615 916.96 137.019 924.16 151.442C924.16 151.442 927.04 138.462 932.8 132.692C932.8 132.692 928.48 150 934.24 154.327C940 158.654 945.76 152.885 945.76 152.885C945.76 152.885 938.56 119.712 961.6 95.1923C984.64 70.6731 977.44 0 977.44 0C977.44 0 1007.68 15.8654 1010.56 50.4808C1010.56 50.4808 1013.44 76.4423 1010.56 82.2115C1010.56 82.2115 1032.16 59.1346 1045.12 62.0192C1045.12 62.0192 1020.64 87.9808 1040.8 119.712C1040.8 119.712 1059.52 137.019 1060.96 148.558C1060.96 148.558 1075.36 134.135 1055.2 103.846C1055.2 103.846 1072.48 105.288 1088.32 124.038C1088.32 124.038 1079.68 69.2308 1122.88 40.3846C1122.88 40.3846 1118.56 108.173 1138.72 132.692C1158.88 157.212 1154.56 193.269 1154.56 193.269C1154.56 193.269 1157.44 199.038 1163.2 200.481C1168.96 201.923 1167.52 174.519 1166.08 173.077C1164.64 171.635 1176.16 186.058 1176.16 193.269C1176.16 193.269 1180.48 178.846 1184.8 178.846C1184.8 178.846 1180.48 190.385 1183.36 197.596L1194.88 191.827C1194.88 191.827 1184.8 167.308 1215.04 135.577C1245.28 103.846 1228 47.5962 1228 47.5962C1228 47.5962 1258.24 72.1154 1259.68 98.0769C1259.68 98.0769 1256.8 122.596 1261.12 129.808C1261.12 129.808 1276.96 112.5 1294.24 111.058C1294.24 111.058 1279.84 139.904 1285.6 151.442C1285.6 151.442 1287.04 141.346 1294.24 132.692C1294.24 132.692 1289.92 147.115 1294.24 154.327C1294.24 154.327 1294.24 157.212 1300 157.212C1305.76 157.212 1305.76 139.904 1305.76 139.904C1305.76 139.904 1307.2 108.173 1325.92 87.9808C1344.64 67.7885 1338.88 0 1338.88 0C1338.88 0 1367.68 14.4231 1372 53.3654V225H-68V69.2308Z" fill="#C84916" fill-opacity="0.1"/>
</svg>
